ffmpeg started on 2026-01-19 at 14:44:06
Report written to "D:\Convert\FFMetrics\reports\psnr_report-6.txt"
Log level: 32
Command line:
ffmpeg -hide_banner -nostdin -r 24000/1001 -i "F:\\Convert\\files\\[DC] Make Heroine ga Oosugiru - 07_Telegram_HEVC(182).mkv" -r 24000/1001 -i "F:\\Convert\\files\\[DC] Make Heroine ga Oosugiru - 07_Telegram.mp4" -lavfi "[0:v]settb=AVTB,setpts=PTS-STARTPTS,format=pix_fmts=yuv420p10le,fps=24000/1001,scale=1920:1080:flags=lanczos:param0=3:out_range=limited:out_color_matrix=bt709:out_chroma_loc=left,setsar=1/1,setdar=(1920/1080)*(1/1),colorspace=format=yuv420p10:range=tv:primaries=bt709:trc=bt709:space=bt709:fast=0[main];[1:v]settb=AVTB,setpts=PTS-STARTPTS,format=pix_fmts=yuv420p,fps=24000/1001,scale=1920:1080:flags=lanczos:param0=3:out_range=limited:out_color_matrix=bt709:out_chroma_loc=left,setsar=1.000,setdar=1.778,colorspace=format=yuv420p:range=tv:primaries=bt709:trc=bt709:space=bt709:fast=0[ref];[main][ref]psnr=eof_action=endall:stats_file='D\\:/Convert/FFMetrics/logs/psnr_logfile-6.txt'" -f null -
Input #0, matroska,webm, from 'F:\Convert\files\[DC] Make Heroine ga Oosugiru - 07_Telegram_HEVC(182).mkv':
  Metadata:
    COMPATIBLE_BRANDS: isomiso2avc1mp41
    MAJOR_BRAND     : isom
    MINOR_VERSION   : 512
    ENCODER         : Lavf61.7.100
  Duration: 00:24:06.79, start: -0.021000, bitrate: 973 kb/s
  Stream #0:0: Video: hevc (Main 10), yuv420p10le(tv, bt709, progressive), 1920x1080 [SAR 1:1 DAR 16:9], 23.98 fps, 23.98 tbr, 1k tbn (default)
      Metadata:
        HANDLER_NAME    : VideoHandler
        VENDOR_ID       : [0][0][0][0]
        ENCODER         : Lavc61.19.100 libx265
        BPS             : 776142
        DURATION        : 00:24:06.569708333
        NUMBER_OF_FRAMES: 34683
        NUMBER_OF_BYTES : 140343006
        _STATISTICS_WRITING_APP: mkvpropedit v94.0 ('Initiate') 64-bit
        _STATISTICS_WRITING_DATE_UTC: 2026-01-19 09:57:31
        _STATISTICS_TAGS: BPS DURATION NUMBER_OF_FRAMES NUMBER_OF_BYTES
  Stream #0:1: Audio: aac (LC), 48000 Hz, stereo, fltp (default)
      Metadata:
        HANDLER_NAME    : SoundHandler
        VENDOR_ID       : [0][0][0][0]
        ENCODER         : Lavc61.19.100 aac
        BPS             : 193194
        DURATION        : 00:24:06.784000000
        NUMBER_OF_FRAMES: 67819
        NUMBER_OF_BYTES : 34938755
        _STATISTICS_WRITING_APP: mkvpropedit v94.0 ('Initiate') 64-bit
        _STATISTICS_WRITING_DATE_UTC: 2026-01-19 09:57:31
        _STATISTICS_TAGS: BPS DURATION NUMBER_OF_FRAMES NUMBER_OF_BYTES
Input #1, mov,mp4,m4a,3gp,3g2,mj2, from 'F:\Convert\files\[DC] Make Heroine ga Oosugiru - 07_Telegram.mp4':
  Metadata:
    major_brand     : isom
    minor_version   : 512
    compatible_brands: isomiso2avc1mp41
    encoder         : Lavf60.16.100
  Duration: 00:24:06.74, start: 0.000000, bitrate: 3764 kb/s
  Stream #1:0[0x1](und): Video: h264 (High) (avc1 / 0x31637661), yuv420p(tv, bt709, progressive), 1920x1080 [SAR 1:1 DAR 16:9], 3616 kb/s, 23.98 fps, 23.98 tbr, 24k tbn (default)
      Metadata:
        handler_name    : VideoHandler
        vendor_id       : [0][0][0][0]
        encoder         : Lavc60.31.102 h264_qsv
  Stream #1:1[0x2](und): Audio: aac (HE-AACv2) (mp4a / 0x6134706D), 48000 Hz, stereo, fltp, 144 kb/s (default)
      Metadata:
        handler_name    : SoundHandler
        vendor_id       : [0][0][0][0]
Stream mapping:
  Stream #0:0 (hevc) -> settb:default
  Stream #1:0 (h264) -> settb:default
  psnr:default -> Stream #0:0 (wrapped_avframe)
  Stream #0:1 -> #0:1 (aac (native) -> pcm_s16le (native))
Output #0, null, to 'pipe:':
  Metadata:
    COMPATIBLE_BRANDS: isomiso2avc1mp41
    MAJOR_BRAND     : isom
    MINOR_VERSION   : 512
    encoder         : Lavf61.7.100
  Stream #0:0: Video: wrapped_avframe, yuv420p10le(tv, bt709, progressive), 1920x1080 [SAR 1:1 DAR 16:9], q=2-31, 200 kb/s, 23.98 fps, 23.98 tbn
      Metadata:
        encoder         : Lavc61.19.100 wrapped_avframe
  Stream #0:1: Audio: pcm_s16le, 48000 Hz, stereo, s16, 1536 kb/s (default)
      Metadata:
        HANDLER_NAME    : SoundHandler
        VENDOR_ID       : [0][0][0][0]
        _STATISTICS_TAGS: BPS DURATION NUMBER_OF_FRAMES NUMBER_OF_BYTES
        BPS             : 193194
        DURATION        : 00:24:06.784000000
        NUMBER_OF_FRAMES: 67819
        NUMBER_OF_BYTES : 34938755
        _STATISTICS_WRITING_APP: mkvpropedit v94.0 ('Initiate') 64-bit
        _STATISTICS_WRITING_DATE_UTC: 2026-01-19 09:57:31
        encoder         : Lavc61.19.100 pcm_s16le
frame=  141 fps=0.0 q=-0.0 size=N/A time=00:00:05.88 bitrate=N/A speed=11.4x    frame=  343 fps=329 q=-0.0 size=N/A time=00:00:14.30 bitrate=N/A speed=13.7x    frame=  546 fps=352 q=-0.0 size=N/A time=00:00:22.77 bitrate=N/A speed=14.7x    frame=  749 fps=363 q=-0.0 size=N/A time=00:00:31.23 bitrate=N/A speed=15.2x    frame=  928 fps=359 q=-0.0 size=N/A time=00:00:38.70 bitrate=N/A speed=  15x    frame= 1078 fps=348 q=-0.0 size=N/A time=00:00:44.96 bitrate=N/A speed=14.5x    frame= 1241 fps=344 q=-0.0 size=N/A time=00:00:51.76 bitrate=N/A speed=14.3x    frame= 1412 fps=341 q=-0.0 size=N/A time=00:00:58.89 bitrate=N/A speed=14.2x    frame= 1558 fps=335 q=-0.0 size=N/A time=00:01:04.98 bitrate=N/A speed=  14x    frame= 1708 fps=331 q=-0.0 size=N/A time=00:01:11.23 bitrate=N/A speed=13.8x    frame= 1880 fps=331 q=-0.0 size=N/A time=00:01:18.41 bitrate=N/A speed=13.8x    frame= 2045 fps=330 q=-0.0 size=N/A time=00:01:25.29 bitrate=N/A speed=13.8x    frame= 2152 fps=321 q=-0.0 size=N/A time=00:01:29.75 bitrate=N/A speed=13.4x    frame= 2305 fps=319 q=-0.0 size=N/A time=00:01:36.13 bitrate=N/A speed=13.3x    frame= 2451 fps=317 q=-0.0 size=N/A time=00:01:42.22 bitrate=N/A speed=13.2x    frame= 2585 fps=313 q=-0.0 size=N/A time=00:01:47.81 bitrate=N/A speed=13.1x    frame= 2762 fps=315 q=-0.0 size=N/A time=00:01:55.19 bitrate=N/A speed=13.1x    frame= 2934 fps=316 q=-0.0 size=N/A time=00:02:02.37 bitrate=N/A speed=13.2x    frame= 3143 fps=321 q=-0.0 size=N/A time=00:02:11.08 bitrate=N/A speed=13.4x    frame= 3344 fps=324 q=-0.0 size=N/A time=00:02:19.47 bitrate=N/A speed=13.5x    frame= 3557 fps=328 q=-0.0 size=N/A time=00:02:28.35 bitrate=N/A speed=13.7x    frame= 3759 fps=331 q=-0.0 size=N/A time=00:02:36.78 bitrate=N/A speed=13.8x    frame= 3962 fps=334 q=-0.0 size=N/A time=00:02:45.24 bitrate=N/A speed=13.9x    frame= 4166 fps=337 q=-0.0 size=N/A time=00:02:53.75 bitrate=N/A speed=  14x    frame= 4374 fps=339 q=-0.0 size=N/A time=00:03:02.43 bitrate=N/A speed=14.1x    frame= 4573 fps=341 q=-0.0 size=N/A time=00:03:10.73 bitrate=N/A speed=14.2x    frame= 4774 fps=343 q=-0.0 size=N/A time=00:03:19.11 bitrate=N/A speed=14.3x    frame= 4976 fps=344 q=-0.0 size=N/A time=00:03:27.54 bitrate=N/A speed=14.4x    frame= 5172 fps=346 q=-0.0 size=N/A time=00:03:35.71 bitrate=N/A speed=14.4x    frame= 5367 fps=347 q=-0.0 size=N/A time=00:03:43.84 bitrate=N/A speed=14.5x    frame= 5573 fps=349 q=-0.0 size=N/A time=00:03:52.44 bitrate=N/A speed=14.5x    frame= 5778 fps=350 q=-0.0 size=N/A time=00:04:00.99 bitrate=N/A speed=14.6x    frame= 5975 fps=351 q=-0.0 size=N/A time=00:04:09.20 bitrate=N/A speed=14.6x    frame= 6178 fps=352 q=-0.0 size=N/A time=00:04:17.67 bitrate=N/A speed=14.7x    frame= 6376 fps=353 q=-0.0 size=N/A time=00:04:25.93 bitrate=N/A speed=14.7x    frame= 6584 fps=355 q=-0.0 size=N/A time=00:04:34.60 bitrate=N/A speed=14.8x    frame= 6783 fps=355 q=-0.0 size=N/A time=00:04:42.90 bitrate=N/A speed=14.8x    frame= 6994 fps=357 q=-0.0 size=N/A time=00:04:51.70 bitrate=N/A speed=14.9x    frame= 7187 fps=357 q=-0.0 size=N/A time=00:04:59.75 bitrate=N/A speed=14.9x    frame= 7382 fps=358 q=-0.0 size=N/A time=00:05:07.89 bitrate=N/A speed=14.9x    frame= 7574 fps=358 q=-0.0 size=N/A time=00:05:15.89 bitrate=N/A speed=14.9x    frame= 7752 fps=358 q=-0.0 size=N/A time=00:05:23.32 bitrate=N/A speed=14.9x    frame= 7944 fps=358 q=-0.0 size=N/A time=00:05:31.33 bitrate=N/A speed=14.9x    frame= 8140 fps=359 q=-0.0 size=N/A time=00:05:39.50 bitrate=N/A speed=  15x    frame= 8331 fps=359 q=-0.0 size=N/A time=00:05:47.47 bitrate=N/A speed=  15x    frame= 8535 fps=360 q=-0.0 size=N/A time=00:05:55.98 bitrate=N/A speed=  15x    frame= 8724 fps=360 q=-0.0 size=N/A time=00:06:03.86 bitrate=N/A speed=  15x    frame= 8924 fps=360 q=-0.0 size=N/A time=00:06:12.20 bitrate=N/A speed=  15x    frame= 9110 fps=360 q=-0.0 size=N/A time=00:06:19.96 bitrate=N/A speed=  15x    frame= 9309 fps=361 q=-0.0 size=N/A time=00:06:28.26 bitrate=N/A speed=15.1x    frame= 9498 fps=361 q=-0.0 size=N/A time=00:06:36.14 bitrate=N/A speed=15.1x    frame= 9693 fps=361 q=-0.0 size=N/A time=00:06:44.27 bitrate=N/A speed=15.1x    frame= 9887 fps=362 q=-0.0 size=N/A time=00:06:52.37 bitrate=N/A speed=15.1x    frame=10081 fps=362 q=-0.0 size=N/A time=00:07:00.46 bitrate=N/A speed=15.1x    frame=10277 fps=362 q=-0.0 size=N/A time=00:07:08.63 bitrate=N/A speed=15.1x    frame=10460 fps=362 q=-0.0 size=N/A time=00:07:16.26 bitrate=N/A speed=15.1x    frame=10642 fps=362 q=-0.0 size=N/A time=00:07:23.86 bitrate=N/A speed=15.1x    frame=10832 fps=362 q=-0.0 size=N/A time=00:07:31.78 bitrate=N/A speed=15.1x    frame=11029 fps=362 q=-0.0 size=N/A time=00:07:40.00 bitrate=N/A speed=15.1x    frame=11214 fps=362 q=-0.0 size=N/A time=00:07:47.71 bitrate=N/A speed=15.1x    frame=11412 fps=363 q=-0.0 size=N/A time=00:07:55.97 bitrate=N/A speed=15.1x    frame=11608 fps=363 q=-0.0 size=N/A time=00:08:04.15 bitrate=N/A speed=15.1x    frame=11791 fps=363 q=-0.0 size=N/A time=00:08:11.78 bitrate=N/A speed=15.1x    frame=11988 fps=363 q=-0.0 size=N/A time=00:08:19.99 bitrate=N/A speed=15.1x    frame=12186 fps=364 q=-0.0 size=N/A time=00:08:28.25 bitrate=N/A speed=15.2x    frame=12374 fps=364 q=-0.0 size=N/A time=00:08:36.09 bitrate=N/A speed=15.2x    frame=12573 fps=364 q=-0.0 size=N/A time=00:08:44.39 bitrate=N/A speed=15.2x    frame=12773 fps=364 q=-0.0 size=N/A time=00:08:52.74 bitrate=N/A speed=15.2x    frame=12968 fps=364 q=-0.0 size=N/A time=00:09:00.87 bitrate=N/A speed=15.2x    frame=13154 fps=364 q=-0.0 size=N/A time=00:09:08.63 bitrate=N/A speed=15.2x    frame=13339 fps=364 q=-0.0 size=N/A time=00:09:16.34 bitrate=N/A speed=15.2x    frame=13523 fps=364 q=-0.0 size=N/A time=00:09:24.02 bitrate=N/A speed=15.2x    frame=13725 fps=364 q=-0.0 size=N/A time=00:09:32.44 bitrate=N/A speed=15.2x    frame=13917 fps=365 q=-0.0 size=N/A time=00:09:40.45 bitrate=N/A speed=15.2x    frame=14092 fps=364 q=-0.0 size=N/A time=00:09:47.75 bitrate=N/A speed=15.2x    frame=14277 fps=364 q=-0.0 size=N/A time=00:09:55.46 bitrate=N/A speed=15.2x    frame=14475 fps=364 q=-0.0 size=N/A time=00:10:03.72 bitrate=N/A speed=15.2x    frame=14667 fps=364 q=-0.0 size=N/A time=00:10:11.73 bitrate=N/A speed=15.2x    frame=14861 fps=365 q=-0.0 size=N/A time=00:10:19.82 bitrate=N/A speed=15.2x    frame=15052 fps=365 q=-0.0 size=N/A time=00:10:27.79 bitrate=N/A speed=15.2x    frame=15222 fps=364 q=-0.0 size=N/A time=00:10:34.88 bitrate=N/A speed=15.2x    frame=15404 fps=364 q=-0.0 size=N/A time=00:10:42.47 bitrate=N/A speed=15.2x    frame=15603 fps=364 q=-0.0 size=N/A time=00:10:50.77 bitrate=N/A speed=15.2x    frame=15799 fps=365 q=-0.0 size=N/A time=00:10:58.94 bitrate=N/A speed=15.2x    frame=15993 fps=365 q=-0.0 size=N/A time=00:11:07.04 bitrate=N/A speed=15.2x    frame=16192 fps=365 q=-0.0 size=N/A time=00:11:15.34 bitrate=N/A speed=15.2x    frame=16392 fps=365 q=-0.0 size=N/A time=00:11:23.68 bitrate=N/A speed=15.2x    frame=16567 fps=365 q=-0.0 size=N/A time=00:11:30.98 bitrate=N/A speed=15.2x    frame=16760 fps=365 q=-0.0 size=N/A time=00:11:39.03 bitrate=N/A speed=15.2x    frame=16966 fps=365 q=-0.0 size=N/A time=00:11:47.62 bitrate=N/A speed=15.2x    frame=17161 fps=366 q=-0.0 size=N/A time=00:11:55.75 bitrate=N/A speed=15.2x    frame=17354 fps=366 q=-0.0 size=N/A time=00:12:03.80 bitrate=N/A speed=15.3x    frame=17549 fps=366 q=-0.0 size=N/A time=00:12:11.93 bitrate=N/A speed=15.3x    frame=17743 fps=366 q=-0.0 size=N/A time=00:12:20.03 bitrate=N/A speed=15.3x    frame=17945 fps=366 q=-0.0 size=N/A time=00:12:28.45 bitrate=N/A speed=15.3x    frame=18158 fps=367 q=-0.0 size=N/A time=00:12:37.33 bitrate=N/A speed=15.3x    frame=18332 fps=366 q=-0.0 size=N/A time=00:12:44.59 bitrate=N/A speed=15.3x    frame=18523 fps=366 q=-0.0 size=N/A time=00:12:52.56 bitrate=N/A speed=15.3x    frame=18721 fps=367 q=-0.0 size=N/A time=00:13:00.82 bitrate=N/A speed=15.3x    frame=18928 fps=367 q=-0.0 size=N/A time=00:13:09.45 bitrate=N/A speed=15.3x    frame=19128 fps=367 q=-0.0 size=N/A time=00:13:17.79 bitrate=N/A speed=15.3x    frame=19331 fps=367 q=-0.0 size=N/A time=00:13:26.26 bitrate=N/A speed=15.3x    frame=19519 fps=367 q=-0.0 size=N/A time=00:13:34.10 bitrate=N/A speed=15.3x    frame=19717 fps=367 q=-0.0 size=N/A time=00:13:42.36 bitrate=N/A speed=15.3x    frame=19900 fps=367 q=-0.0 size=N/A time=00:13:49.99 bitrate=N/A speed=15.3x    frame=20090 fps=367 q=-0.0 size=N/A time=00:13:57.92 bitrate=N/A speed=15.3x    frame=20273 fps=367 q=-0.0 size=N/A time=00:14:05.55 bitrate=N/A speed=15.3x    frame=20458 fps=367 q=-0.0 size=N/A time=00:14:13.26 bitrate=N/A speed=15.3x    frame=20632 fps=367 q=-0.0 size=N/A time=00:14:20.52 bitrate=N/A speed=15.3x    frame=20817 fps=367 q=-0.0 size=N/A time=00:14:28.24 bitrate=N/A speed=15.3x    frame=20999 fps=367 q=-0.0 size=N/A time=00:14:35.83 bitrate=N/A speed=15.3x    frame=21194 fps=367 q=-0.0 size=N/A time=00:14:43.96 bitrate=N/A speed=15.3x    frame=21375 fps=367 q=-0.0 size=N/A time=00:14:51.51 bitrate=N/A speed=15.3x    frame=21566 fps=367 q=-0.0 size=N/A time=00:14:59.48 bitrate=N/A speed=15.3x    frame=21740 fps=367 q=-0.0 size=N/A time=00:15:06.73 bitrate=N/A speed=15.3x    frame=21925 fps=366 q=-0.0 size=N/A time=00:15:14.45 bitrate=N/A speed=15.3x    frame=22103 fps=366 q=-0.0 size=N/A time=00:15:21.87 bitrate=N/A speed=15.3x    frame=22299 fps=366 q=-0.0 size=N/A time=00:15:30.05 bitrate=N/A speed=15.3x    frame=22482 fps=366 q=-0.0 size=N/A time=00:15:37.68 bitrate=N/A speed=15.3x    frame=22663 fps=366 q=-0.0 size=N/A time=00:15:45.23 bitrate=N/A speed=15.3x    frame=22839 fps=366 q=-0.0 size=N/A time=00:15:52.57 bitrate=N/A speed=15.3x    frame=23023 fps=366 q=-0.0 size=N/A time=00:16:00.25 bitrate=N/A speed=15.3x    frame=23207 fps=366 q=-0.0 size=N/A time=00:16:07.92 bitrate=N/A speed=15.3x    frame=23399 fps=366 q=-0.0 size=N/A time=00:16:15.93 bitrate=N/A speed=15.3x    frame=23583 fps=366 q=-0.0 size=N/A time=00:16:23.60 bitrate=N/A speed=15.3x    frame=23764 fps=366 q=-0.0 size=N/A time=00:16:31.15 bitrate=N/A speed=15.3x    frame=23963 fps=366 q=-0.0 size=N/A time=00:16:39.45 bitrate=N/A speed=15.3x    frame=24153 fps=366 q=-0.0 size=N/A time=00:16:47.38 bitrate=N/A speed=15.3x    frame=24340 fps=366 q=-0.0 size=N/A time=00:16:55.18 bitrate=N/A speed=15.3x    frame=24526 fps=366 q=-0.0 size=N/A time=00:17:02.93 bitrate=N/A speed=15.3x    frame=24720 fps=366 q=-0.0 size=N/A time=00:17:11.03 bitrate=N/A speed=15.3x    frame=24916 fps=366 q=-0.0 size=N/A time=00:17:19.20 bitrate=N/A speed=15.3x    frame=25111 fps=366 q=-0.0 size=N/A time=00:17:27.33 bitrate=N/A speed=15.3x    frame=25307 fps=366 q=-0.0 size=N/A time=00:17:35.51 bitrate=N/A speed=15.3x    frame=25482 fps=366 q=-0.0 size=N/A time=00:17:42.81 bitrate=N/A speed=15.3x    frame=25683 fps=366 q=-0.0 size=N/A time=00:17:51.19 bitrate=N/A speed=15.3x    frame=25878 fps=366 q=-0.0 size=N/A time=00:17:59.32 bitrate=N/A speed=15.3x    frame=26077 fps=366 q=-0.0 size=N/A time=00:18:07.62 bitrate=N/A speed=15.3x    frame=26272 fps=366 q=-0.0 size=N/A time=00:18:15.76 bitrate=N/A speed=15.3x    frame=26469 fps=367 q=-0.0 size=N/A time=00:18:23.97 bitrate=N/A speed=15.3x    frame=26666 fps=367 q=-0.0 size=N/A time=00:18:32.19 bitrate=N/A speed=15.3x    frame=26861 fps=367 q=-0.0 size=N/A time=00:18:40.32 bitrate=N/A speed=15.3x    frame=27025 fps=366 q=-0.0 size=N/A time=00:18:47.16 bitrate=N/A speed=15.3x    frame=27206 fps=366 q=-0.0 size=N/A time=00:18:54.71 bitrate=N/A speed=15.3x    frame=27381 fps=366 q=-0.0 size=N/A time=00:19:02.01 bitrate=N/A speed=15.3x    frame=27565 fps=366 q=-0.0 size=N/A time=00:19:09.69 bitrate=N/A speed=15.3x    frame=27742 fps=366 q=-0.0 size=N/A time=00:19:17.07 bitrate=N/A speed=15.3x    frame=27941 fps=366 q=-0.0 size=N/A time=00:19:25.37 bitrate=N/A speed=15.3x    frame=28132 fps=366 q=-0.0 size=N/A time=00:19:33.33 bitrate=N/A speed=15.3x    frame=28335 fps=366 q=-0.0 size=N/A time=00:19:41.80 bitrate=N/A speed=15.3x    frame=28530 fps=366 q=-0.0 size=N/A time=00:19:49.93 bitrate=N/A speed=15.3x    frame=28715 fps=366 q=-0.0 size=N/A time=00:19:57.65 bitrate=N/A speed=15.3x    frame=28896 fps=366 q=-0.0 size=N/A time=00:20:05.20 bitrate=N/A speed=15.3x    frame=29068 fps=366 q=-0.0 size=N/A time=00:20:12.37 bitrate=N/A speed=15.3x    frame=29250 fps=366 q=-0.0 size=N/A time=00:20:19.96 bitrate=N/A speed=15.3x    frame=29436 fps=366 q=-0.0 size=N/A time=00:20:27.72 bitrate=N/A speed=15.3x    frame=29611 fps=366 q=-0.0 size=N/A time=00:20:35.06 bitrate=N/A speed=15.2x    frame=29796 fps=366 q=-0.0 size=N/A time=00:20:42.74 bitrate=N/A speed=15.2x    frame=29969 fps=365 q=-0.0 size=N/A time=00:20:49.95 bitrate=N/A speed=15.2x    frame=30145 fps=365 q=-0.0 size=N/A time=00:20:57.29 bitrate=N/A speed=15.2x    frame=30331 fps=365 q=-0.0 size=N/A time=00:21:05.05 bitrate=N/A speed=15.2x    frame=30534 fps=365 q=-0.0 size=N/A time=00:21:13.52 bitrate=N/A speed=15.2x    frame=30734 fps=366 q=-0.0 size=N/A time=00:21:21.86 bitrate=N/A speed=15.2x    frame=30927 fps=366 q=-0.0 size=N/A time=00:21:29.91 bitrate=N/A speed=15.2x    frame=31113 fps=366 q=-0.0 size=N/A time=00:21:37.67 bitrate=N/A speed=15.2x    frame=31306 fps=366 q=-0.0 size=N/A time=00:21:45.72 bitrate=N/A speed=15.2x    frame=31481 fps=365 q=-0.0 size=N/A time=00:21:53.02 bitrate=N/A speed=15.2x    frame=31680 fps=366 q=-0.0 size=N/A time=00:22:01.32 bitrate=N/A speed=15.2x    frame=31840 fps=365 q=-0.0 size=N/A time=00:22:07.99 bitrate=N/A speed=15.2x    frame=32004 fps=365 q=-0.0 size=N/A time=00:22:14.83 bitrate=N/A speed=15.2x    frame=32187 fps=365 q=-0.0 size=N/A time=00:22:22.46 bitrate=N/A speed=15.2x    frame=32387 fps=365 q=-0.0 size=N/A time=00:22:30.80 bitrate=N/A speed=15.2x    frame=32573 fps=365 q=-0.0 size=N/A time=00:22:38.56 bitrate=N/A speed=15.2x    frame=32718 fps=364 q=-0.0 size=N/A time=00:22:44.61 bitrate=N/A speed=15.2x    frame=32863 fps=364 q=-0.0 size=N/A time=00:22:50.66 bitrate=N/A speed=15.2x    frame=33055 fps=364 q=-0.0 size=N/A time=00:22:58.66 bitrate=N/A speed=15.2x    frame=33234 fps=364 q=-0.0 size=N/A time=00:23:06.13 bitrate=N/A speed=15.2x    frame=33394 fps=364 q=-0.0 size=N/A time=00:23:12.80 bitrate=N/A speed=15.2x    frame=33552 fps=363 q=-0.0 size=N/A time=00:23:19.39 bitrate=N/A speed=15.2x    frame=33698 fps=363 q=-0.0 size=N/A time=00:23:25.48 bitrate=N/A speed=15.1x    frame=33815 fps=362 q=-0.0 size=N/A time=00:23:30.36 bitrate=N/A speed=15.1x    frame=33946 fps=362 q=-0.0 size=N/A time=00:23:35.83 bitrate=N/A speed=15.1x    frame=34098 fps=361 q=-0.0 size=N/A time=00:23:42.17 bitrate=N/A speed=15.1x    frame=34251 fps=361 q=-0.0 size=N/A time=00:23:48.55 bitrate=N/A speed=15.1x    frame=34373 fps=360 q=-0.0 size=N/A time=00:23:53.64 bitrate=N/A speed=  15x    frame=34508 fps=360 q=-0.0 size=N/A time=00:23:59.27 bitrate=N/A speed=  15x    [Parsed_psnr_16 @ 000001e299c31a00] PSNR y:48.714377 u:50.271037 v:50.320800 average:49.180342 min:38.111450 max:inf
[out#0/null @ 000001e28c078a00] video:14903KiB audio:271276KiB subtitle:0KiB other streams:0KiB global headers:0KiB muxing overhead: unknown
frame=34683 fps=360 q=-0.0 Lsize=N/A time=00:24:06.57 bitrate=N/A speed=  15x    
